<mxfile host="app.diagrams.net" agent="Mozilla/5.0 (Windows NT 10.0; Win64; x64) AppleWebKit/537.36 (KHTML, like Gecko) Chrome/138.0.0.0 Safari/537.36" version="27.2.0">
  <diagram name="第 1 页" id="4i4dJYvoxaNUzDEIMja5">
    <mxGraphModel dx="1554" dy="815" grid="1" gridSize="10" guides="1" tooltips="1" connect="1" arrows="1" fold="1" page="1" pageScale="1" pageWidth="827" pageHeight="1169" math="0" shadow="0">
      <root>
        <mxCell id="0" />
        <mxCell id="1" parent="0" />
        <mxCell id="Ywu0nioePe50mHxyMC4t-3" value="" style="edgeStyle=orthogonalEdgeStyle;rounded=0;orthogonalLoop=1;jettySize=auto;html=1;" edge="1" parent="1" source="Ywu0nioePe50mHxyMC4t-1" target="Ywu0nioePe50mHxyMC4t-2">
          <mxGeometry relative="1" as="geometry" />
        </mxCell>
        <mxCell id="Ywu0nioePe50mHxyMC4t-1" value="BOM生产管理&lt;br&gt;填写套数，保存" style="rounded=0;whiteSpace=wrap;html=1;" vertex="1" parent="1">
          <mxGeometry x="290" y="30" width="120" height="60" as="geometry" />
        </mxCell>
        <mxCell id="Ywu0nioePe50mHxyMC4t-7" value="" style="edgeStyle=orthogonalEdgeStyle;rounded=0;orthogonalLoop=1;jettySize=auto;html=1;" edge="1" parent="1" source="Ywu0nioePe50mHxyMC4t-2" target="Ywu0nioePe50mHxyMC4t-6">
          <mxGeometry relative="1" as="geometry" />
        </mxCell>
        <mxCell id="Ywu0nioePe50mHxyMC4t-13" value="" style="edgeStyle=orthogonalEdgeStyle;rounded=0;orthogonalLoop=1;jettySize=auto;html=1;" edge="1" parent="1" source="Ywu0nioePe50mHxyMC4t-2" target="Ywu0nioePe50mHxyMC4t-12">
          <mxGeometry relative="1" as="geometry" />
        </mxCell>
        <mxCell id="Ywu0nioePe50mHxyMC4t-16" value="审核通过" style="edgeLabel;html=1;align=center;verticalAlign=middle;resizable=0;points=[];" vertex="1" connectable="0" parent="Ywu0nioePe50mHxyMC4t-13">
          <mxGeometry x="0.035" y="2" relative="1" as="geometry">
            <mxPoint as="offset" />
          </mxGeometry>
        </mxCell>
        <mxCell id="Ywu0nioePe50mHxyMC4t-15" value="" style="edgeStyle=orthogonalEdgeStyle;rounded=0;orthogonalLoop=1;jettySize=auto;html=1;" edge="1" parent="1" source="Ywu0nioePe50mHxyMC4t-2" target="Ywu0nioePe50mHxyMC4t-14">
          <mxGeometry relative="1" as="geometry" />
        </mxCell>
        <mxCell id="Ywu0nioePe50mHxyMC4t-17" style="edgeStyle=orthogonalEdgeStyle;rounded=0;orthogonalLoop=1;jettySize=auto;html=1;entryX=0.5;entryY=0;entryDx=0;entryDy=0;" edge="1" parent="1" source="Ywu0nioePe50mHxyMC4t-2" target="Ywu0nioePe50mHxyMC4t-18">
          <mxGeometry relative="1" as="geometry">
            <mxPoint x="490" y="250" as="targetPoint" />
          </mxGeometry>
        </mxCell>
        <mxCell id="Ywu0nioePe50mHxyMC4t-19" value="不通过" style="edgeLabel;html=1;align=center;verticalAlign=middle;resizable=0;points=[];" vertex="1" connectable="0" parent="Ywu0nioePe50mHxyMC4t-17">
          <mxGeometry x="0.5757" y="-3" relative="1" as="geometry">
            <mxPoint as="offset" />
          </mxGeometry>
        </mxCell>
        <mxCell id="Ywu0nioePe50mHxyMC4t-2" value="点击发起审核" style="rounded=0;whiteSpace=wrap;html=1;" vertex="1" parent="1">
          <mxGeometry x="290" y="130" width="120" height="60" as="geometry" />
        </mxCell>
        <mxCell id="Ywu0nioePe50mHxyMC4t-9" value="" style="edgeStyle=orthogonalEdgeStyle;rounded=0;orthogonalLoop=1;jettySize=auto;html=1;" edge="1" parent="1" source="Ywu0nioePe50mHxyMC4t-6" target="Ywu0nioePe50mHxyMC4t-8">
          <mxGeometry relative="1" as="geometry" />
        </mxCell>
        <mxCell id="Ywu0nioePe50mHxyMC4t-6" value="库存是否足够" style="rhombus;whiteSpace=wrap;html=1;rounded=0;" vertex="1" parent="1">
          <mxGeometry x="420" y="220" width="80" height="80" as="geometry" />
        </mxCell>
        <mxCell id="Ywu0nioePe50mHxyMC4t-11" value="" style="edgeStyle=orthogonalEdgeStyle;rounded=0;orthogonalLoop=1;jettySize=auto;html=1;" edge="1" parent="1" source="Ywu0nioePe50mHxyMC4t-8" target="Ywu0nioePe50mHxyMC4t-10">
          <mxGeometry relative="1" as="geometry" />
        </mxCell>
        <mxCell id="Ywu0nioePe50mHxyMC4t-8" value="发起采购单&lt;br&gt;level4 物料" style="whiteSpace=wrap;html=1;rounded=0;" vertex="1" parent="1">
          <mxGeometry x="400" y="340" width="120" height="60" as="geometry" />
        </mxCell>
        <mxCell id="Ywu0nioePe50mHxyMC4t-10" value="采购流程" style="whiteSpace=wrap;html=1;rounded=0;" vertex="1" parent="1">
          <mxGeometry x="400" y="450" width="120" height="60" as="geometry" />
        </mxCell>
        <mxCell id="Ywu0nioePe50mHxyMC4t-12" value="生产部待选（已发布）&lt;br&gt;status改为1" style="rounded=0;whiteSpace=wrap;html=1;" vertex="1" parent="1">
          <mxGeometry x="600" y="130" width="120" height="60" as="geometry" />
        </mxCell>
        <mxCell id="Ywu0nioePe50mHxyMC4t-14" value="技术部项目核算、存档" style="rounded=0;whiteSpace=wrap;html=1;" vertex="1" parent="1">
          <mxGeometry x="480" y="30" width="120" height="70" as="geometry" />
        </mxCell>
        <mxCell id="Ywu0nioePe50mHxyMC4t-18" value="修改重做" style="rounded=0;whiteSpace=wrap;html=1;" vertex="1" parent="1">
          <mxGeometry x="60" y="250" width="120" height="60" as="geometry" />
        </mxCell>
      </root>
    </mxGraphModel>
  </diagram>
</mxfile>
